<?xml version="1.0" encoding="UTF-8"?>
<svg xmlns="http://www.w3.org/2000/svg" id="Layer_1" data-name="Layer 1" viewBox="0 0 512 512" width="512" height="512"><path d="M396.994,276.368l-51.771,38.289L325.68,291.772a6,6,0,0,0-9.125,7.793L339.73,326.7a6,6,0,0,0,8.13.928l56.269-41.615a6,6,0,0,0-7.135-9.649Z"/><path d="M271.069,90h12.357a6,6,0,0,0,0-12H271.069a6,6,0,0,0,0,12Z"/><path d="M194.7,477.668a22.675,22.675,0,1,0-22.675-22.675A22.7,22.7,0,0,0,194.7,477.668Zm0-33.35a10.675,10.675,0,1,1-10.675,10.675A10.688,10.688,0,0,1,194.7,444.318Z"/><path d="M124.321,271H242.546a5.887,5.887,0,0,0,4.242-1.634l22.5-22.475A5.819,5.819,0,0,0,271,242.709V136.461c0-3.313-2.6-6.461-5.918-6.461H146.857a6.246,6.246,0,0,0-4.243,1.988l-22.7,22.652A6.437,6.437,0,0,0,118,159V265.246C118,268.56,121.008,271,124.321,271ZM193,259H174V234.646l19,9.174Zm66-18.776L249,250.76V161.483l10-10.536ZM208.456,142H250.6l-10.536,11H197.919Zm-59.113,0h42.141l-10.536,11H138.807ZM194,165v9H173v-9Zm-64,0h31v14.8c0,3.314,2.258,6.2,5.571,6.2h33.86c3.313,0,5.569-2.888,5.569-6.2V165h31v94H205V240a5.856,5.856,0,0,0-3.3-5.435l-31.553-14.783a5.618,5.618,0,0,0-5.565.374A5.824,5.824,0,0,0,162,225.219V259H130Z"/><path d="M124.321,304a6,6,0,0,0,0,12H210.73a6,6,0,1,0,0-12Z"/><path d="M242.546,330H124.321a6,6,0,0,0,0,12H242.546a6,6,0,1,0,0-12Z"/><path d="M242.546,357H124.321a6,6,0,0,0,0,12H242.546a6,6,0,1,0,0-12Z"/><path d="M92,105.763a6,6,0,0,0-6,6v6.3a6,6,0,0,0,12,0v-6.3A6,6,0,0,0,92,105.763Z"/><path d="M92,131.058a6,6,0,0,0-6,6v66a6,6,0,0,0,12,0v-66A6,6,0,0,0,92,131.058Z"/><path d="M359.84,204.138a96.608,96.608,0,0,0-25.84,3.5V52.986A41.946,41.946,0,0,0,292.1,11H97.3C74.14,11,55,29.827,55,52.986V459.014C55,482.173,74.14,501,97.3,501H292.1A41.946,41.946,0,0,0,334,459.014V394.357a96.864,96.864,0,1,0,25.84-190.219ZM322,459.014A29.933,29.933,0,0,1,292.1,489H97.3C80.757,489,67,475.556,67,459.014V421H322ZM322,409H67V90H249.175a6,6,0,0,0,0-12H67V52.986C67,36.444,80.757,23,97.3,23H292.1A29.933,29.933,0,0,1,322,52.986V78H305.871a6,6,0,0,0,0,12H322V211.837a96.859,96.859,0,0,0,0,178.326Zm37.84-23.138A84.862,84.862,0,1,1,444.7,301,84.958,84.958,0,0,1,359.84,385.862Z"/></svg>
