<svg id="Capa_1" enable-background="new 0 0 512 512" height="512" viewBox="0 0 512 512" width="512" xmlns="http://www.w3.org/2000/svg"><g><g><g><path d="m373.441 512h-234.882c-22.758 0-41.207-18.449-41.207-41.207v-429.586c0-22.758 18.449-41.207 41.207-41.207h234.881c22.758 0 41.207 18.449 41.207 41.207v429.586c.001 22.758-18.448 41.207-41.206 41.207z" fill="#3d6d93"/><path d="m373.441 0h-30.905c22.758 0 41.207 18.449 41.207 41.207v429.586c0 22.758-18.449 41.207-41.207 41.207h30.905c22.758 0 41.207-18.449 41.207-41.207v-429.586c0-22.758-18.449-41.207-41.207-41.207z" fill="#335e80"/><path d="m331.67 39.147c0 7.692-6.235 13.927-13.927 13.927h-123.486c-7.692 0-13.927-6.235-13.927-13.927 0-4.552-3.69-8.241-8.241-8.241h-28.379c-8.534 0-15.453 6.918-15.453 15.453v419.284c0 8.534 6.918 15.453 15.453 15.453h224.58c8.534 0 15.453-6.918 15.453-15.453v-419.285c0-8.534-6.918-15.453-15.453-15.453h-28.379c-4.551 0-8.241 3.69-8.241 8.242z" fill="#f9f7f8"/></g><circle cx="256" cy="26.537" fill="#335e80" r="7.726"/></g><g><g><path d="m177.556 216.331c12.561-15.067 19.89-34.646 19.158-55.961-1.5-43.725-37.318-79.059-81.059-79.997-47.013-1.008-85.37 37.116-84.743 84.044.609 45.54 38.494 81.795 84.038 81.795h75.81c3.671 0 5.51-4.439 2.914-7.035l-15.852-15.852c-1.902-1.902-1.99-4.926-.266-6.994z" fill="#f58a97"/><path d="m177.823 223.327c-1.904-1.904-1.991-4.928-.267-6.996 12.561-15.067 19.89-34.646 19.158-55.961-1.5-43.725-37.318-79.059-81.059-79.997-5.945-.127-11.75.375-17.356 1.438 37.364 7.075 66.168 39.45 67.51 78.559.731 21.314-6.597 40.894-19.158 55.961-1.724 2.068-1.637 5.092.267 6.996l15.852 15.852c2.596 2.596.757 7.035-2.914 7.035h30.905c3.671 0 5.51-4.439 2.914-7.035z" fill="#f07281"/><g fill="#fdd1d5"><circle cx="113.835" cy="163.284" r="7.726"/><circle cx="144.74" cy="163.284" r="7.726"/><circle cx="82.93" cy="163.284" r="7.726"/></g></g><g><g><path d="m336.691 246.213h-114.687c-4.267 0-7.726-3.459-7.726-7.726s3.459-7.726 7.726-7.726h114.687c4.267 0 7.726 3.459 7.726 7.726s-3.459 7.726-7.726 7.726z" fill="#dedaee"/></g><g><path d="m336.691 215.308h-114.687c-4.267 0-7.726-3.459-7.726-7.726s3.459-7.726 7.726-7.726h114.687c4.267 0 7.726 3.459 7.726 7.726.001 4.267-3.459 7.726-7.726 7.726z" fill="#dedaee"/></g><g><path d="m336.691 184.402h-99.234c-4.267 0-7.726-3.459-7.726-7.726s3.459-7.726 7.726-7.726h99.234c4.267 0 7.726 3.459 7.726 7.726s-3.459 7.726-7.726 7.726z" fill="#dedaee"/></g></g></g><g><g><g><path d="m290.333 431.646h-114.687c-4.267 0-7.726-3.459-7.726-7.726s3.459-7.726 7.726-7.726h114.687c4.267 0 7.726 3.459 7.726 7.726s-3.459 7.726-7.726 7.726z" fill="#dedaee"/></g><g><path d="m290.333 400.74h-114.687c-4.267 0-7.726-3.459-7.726-7.726s3.459-7.726 7.726-7.726h114.687c4.267 0 7.726 3.459 7.726 7.726s-3.459 7.726-7.726 7.726z" fill="#dedaee"/></g><g><path d="m274.88 369.835h-99.234c-4.267 0-7.726-3.459-7.726-7.726s3.459-7.726 7.726-7.726h99.234c4.267 0 7.726 3.459 7.726 7.726.001 4.267-3.459 7.726-7.726 7.726z" fill="#dedaee"/></g></g><g><path d="m334.444 401.764c-12.561-15.067-19.89-34.646-19.158-55.961 1.5-43.725 37.318-79.059 81.059-79.997 47.013-1.008 85.37 37.117 84.743 84.044-.609 45.54-38.494 81.795-84.038 81.795h-75.81c-3.671 0-5.51-4.439-2.914-7.035l15.852-15.852c1.902-1.902 1.99-4.926.266-6.994z" fill="#aee69c"/><path d="m396.344 265.806c-4.617.099-9.139.603-13.549 1.438 38.732 7.341 67.934 41.613 67.387 82.606-.609 45.54-38.494 81.795-84.038 81.795h30.905c45.544 0 83.43-36.255 84.038-81.795.627-46.927-37.73-85.052-84.743-84.044z" fill="#89daa4"/><g fill="#d5efc8"><circle cx="398.165" cy="348.716" r="7.726"/><circle cx="367.26" cy="348.716" r="7.726"/><circle cx="429.07" cy="348.716" r="7.726"/></g></g></g></g></svg>