<svg id="Capa_1" enable-background="new 0 0 512 512" height="512" viewBox="0 0 512 512" width="512" xmlns="http://www.w3.org/2000/svg"><g><g><path d="m459.465 297.445c0-4.142-3.357-7.5-7.5-7.5h-67.206c-4.143 0-7.5 3.358-7.5 7.5v42.725c0 4.142 3.357 7.5 7.5 7.5h67.206c4.143 0 7.5-3.358 7.5-7.5zm-15 35.225h-52.206v-27.725h52.206z"/><path d="m451.965 379.772h-67.206c-4.143 0-7.5 3.358-7.5 7.5v42.696c0 4.142 3.357 7.5 7.5 7.5h67.206c4.143 0 7.5-3.358 7.5-7.5v-42.696c0-4.142-3.358-7.5-7.5-7.5zm-7.5 42.696h-52.206v-27.696h52.206z"/><path d="m512 146.474c0-14.371-11.71-26.062-26.104-26.062h-127.711v-35.529c14.128-.308 25.527-11.87 25.527-26.047 0-14.371-11.71-26.062-26.104-26.062h-206.037c-14.394 0-26.104 11.691-26.104 26.062s11.71 26.062 26.104 26.062h2.244v35.514h-127.711c-14.394 0-26.104 11.691-26.104 26.062 0 11.707 7.771 21.633 18.433 24.912v300.341c0 4.142 3.357 7.5 7.5 7.5h460.135c4.143 0 7.5-3.358 7.5-7.5v-140.739c0-4.142-3.357-7.5-7.5-7.5s-7.5 3.358-7.5 7.5v133.238h-120.383v-291.69h120.383v123.715c0 4.142 3.357 7.5 7.5 7.5s7.5-3.358 7.5-7.5v-124.865c10.661-3.279 18.432-13.206 18.432-24.912zm-371.532-87.638c0-6.1 4.981-11.062 11.104-11.062h206.037c6.122 0 11.104 4.962 11.104 11.062s-4.981 11.062-11.104 11.062h-206.038c-6.122 0-11.103-4.962-11.103-11.062zm-125.468 87.638c0-6.1 4.981-11.062 11.104-11.062h127.712v22.125h-127.712c-6.123-.001-11.104-4.963-11.104-11.063zm18.433 26.062h120.383v291.69h-120.383zm135.382-87.638h174.369v379.329h-24.686v-106.746c0-4.142-3.357-7.5-7.5-7.5h-109.997c-4.143 0-7.5 3.358-7.5 7.5v106.745h-24.686zm94.67 280.083h40.014v99.245h-40.014zm-15 99.246h-39.984v-99.245h39.984zm237.411-306.691h-127.711v-22.125h127.712c6.122 0 11.104 4.962 11.104 11.062-.001 6.101-4.982 11.063-11.105 11.063z"/><path d="m127.213 200.147h-67.178c-4.143 0-7.5 3.358-7.5 7.5v42.725c0 4.142 3.357 7.5 7.5 7.5h67.178c4.143 0 7.5-3.358 7.5-7.5v-42.725c0-4.142-3.358-7.5-7.5-7.5zm-7.5 42.725h-52.178v-27.725h52.178z"/><path d="m127.213 289.945h-67.178c-4.143 0-7.5 3.358-7.5 7.5v42.725c0 4.142 3.357 7.5 7.5 7.5h67.178c4.143 0 7.5-3.358 7.5-7.5v-42.725c0-4.142-3.358-7.5-7.5-7.5zm-7.5 42.725h-52.178v-27.725h52.178z"/><path d="m127.213 379.772h-67.178c-4.143 0-7.5 3.358-7.5 7.5v42.696c0 4.142 3.357 7.5 7.5 7.5h67.178c4.143 0 7.5-3.358 7.5-7.5v-42.696c0-4.142-3.358-7.5-7.5-7.5zm-7.5 42.696h-52.178v-27.696h52.178z"/><path d="m459.465 207.647c0-4.142-3.357-7.5-7.5-7.5h-67.206c-4.143 0-7.5 3.358-7.5 7.5v42.725c0 4.142 3.357 7.5 7.5 7.5h67.206c4.143 0 7.5-3.358 7.5-7.5zm-15 35.225h-52.206v-27.725h52.206z"/><path d="m209.149 204.089h21.132v21.097c0 5.609 4.565 10.172 10.178 10.172h31.054c5.628 0 10.206-4.563 10.206-10.172v-21.097h21.132c5.628 0 10.207-4.563 10.207-10.172v-30.984c0-5.625-4.579-10.201-10.207-10.201h-21.132v-21.068c0-5.625-4.578-10.2-10.206-10.2h-31.054c-5.612 0-10.178 4.576-10.178 10.2v21.068h-21.132c-5.628 0-10.207 4.576-10.207 10.201v30.984c0 5.609 4.579 10.172 10.207 10.172zm4.793-36.357h23.839c4.143 0 7.5-3.358 7.5-7.5v-23.769h21.438v23.769c0 4.142 3.357 7.5 7.5 7.5h23.839v21.357h-23.839c-4.143 0-7.5 3.358-7.5 7.5v23.769h-21.438v-23.769c0-4.142-3.357-7.5-7.5-7.5h-23.839z"/><path d="m287.694 259.075h-63.389c-4.143 0-7.5 3.358-7.5 7.5s3.357 7.5 7.5 7.5h63.389c4.143 0 7.5-3.358 7.5-7.5s-3.357-7.5-7.5-7.5z"/><path d="m287.694 294.494h-63.389c-4.143 0-7.5 3.358-7.5 7.5s3.357 7.5 7.5 7.5h63.389c4.143 0 7.5-3.358 7.5-7.5s-3.357-7.5-7.5-7.5z"/></g></g></svg>